<svg xmlns="http://www.w3.org/2000/svg" width="18" height="18" fill="#fff" viewBox="0 0 24 24"><g stroke="#000" stroke-linecap="round" stroke-linejoin="round" stroke-width="2.7"><path d="M15.2 2h-3.9l-4.2.1c-1.1.2-2 .5-2.8 1.2-.7.8-1 1.7-1.2 2.8L3 10.4v5.8a4 4 0 0 0 2.2 3.4V8c.2-1 .5-1.8 1.2-2.6.8-.7 1.7-1 2.6-1.1l3.3-.1h6.3A3.6 3.6 0 0 0 15.2 2Z"/><path d="M6.6 11.4c0-2.7 0-4 .8-5 .9-.8 2.2-.8 5-.8h2.8c2.8 0 4.1 0 5 .9.8.8.8 2.2.8 4.9v4.8c0 2.7 0 4.1-.8 5-.9.8-2.2.8-5 .8h-2.8c-2.8 0-4.1 0-5-.8-.8-.9-.8-2.3-.8-5v-4.8Z"/></g><path d="M15.2 2h-3.9l-4.2.1c-1.1.2-2 .5-2.8 1.2-.7.8-1 1.7-1.2 2.8L3 10.4v5.8a4 4 0 0 0 2.2 3.4V8c.2-1 .5-1.8 1.2-2.6.8-.7 1.7-1 2.6-1.1l3.3-.1h6.3A3.6 3.6 0 0 0 15.2 2Z"/><path d="M6.6 11.4c0-2.7 0-4 .8-5 .9-.8 2.2-.8 5-.8h2.8c2.8 0 4.1 0 5 .9.8.8.8 2.2.8 4.9v4.8c0 2.7 0 4.1-.8 5-.9.8-2.2.8-5 .8h-2.8c-2.8 0-4.1 0-5-.8-.8-.9-.8-2.3-.8-5v-4.8Z"/></svg>